<svg id="visual" viewBox="0 0 300 960" width="300" height="960" xmlns="http://www.w3.org/2000/svg" xmlns:xlink="http://www.w3.org/1999/xlink" version="1.1"><rect x="0" y="0" width="300" height="960" fill="#FFFFFF"></rect><path d="M119 0L114 26.7C109 53.3 99 106.7 96.3 160C93.7 213.3 98.3 266.7 99.7 320C101 373.3 99 426.7 101 480C103 533.3 109 586.7 104.3 640C99.7 693.3 84.3 746.7 84.8 800C85.3 853.3 101.7 906.7 109.8 933.3L118 960L0 960L0 933.3C0 906.7 0 853.3 0 800C0 746.7 0 693.3 0 640C0 586.7 0 533.3 0 480C0 426.7 0 373.3 0 320C0 266.7 0 213.3 0 160C0 106.7 0 53.3 0 26.7L0 0Z" fill="#f7770f"></path><path d="M58 0L58.8 26.7C59.7 53.3 61.3 106.7 63.8 160C66.3 213.3 69.7 266.7 76.7 320C83.7 373.3 94.3 426.7 98.5 480C102.7 533.3 100.3 586.7 99.8 640C99.3 693.3 100.7 746.7 97.8 800C95 853.3 88 906.7 84.5 933.3L81 960L0 960L0 933.3C0 906.7 0 853.3 0 800C0 746.7 0 693.3 0 640C0 586.7 0 533.3 0 480C0 426.7 0 373.3 0 320C0 266.7 0 213.3 0 160C0 106.7 0 53.3 0 26.7L0 0Z" fill="#f88116"></path><path d="M73 0L72.2 26.7C71.3 53.3 69.7 106.7 69.3 160C69 213.3 70 266.7 67.5 320C65 373.3 59 426.7 61.3 480C63.7 533.3 74.3 586.7 79.2 640C84 693.3 83 746.7 83.2 800C83.3 853.3 84.7 906.7 85.3 933.3L86 960L0 960L0 933.3C0 906.7 0 853.3 0 800C0 746.7 0 693.3 0 640C0 586.7 0 533.3 0 480C0 426.7 0 373.3 0 320C0 266.7 0 213.3 0 160C0 106.7 0 53.3 0 26.7L0 0Z" fill="#f98b1d"></path><path d="M44 0L49 26.7C54 53.3 64 106.7 70.2 160C76.3 213.3 78.7 266.7 77.5 320C76.3 373.3 71.7 426.7 66.8 480C62 533.3 57 586.7 59.8 640C62.7 693.3 73.3 746.7 70.7 800C68 853.3 52 906.7 44 933.3L36 960L0 960L0 933.3C0 906.7 0 853.3 0 800C0 746.7 0 693.3 0 640C0 586.7 0 533.3 0 480C0 426.7 0 373.3 0 320C0 266.7 0 213.3 0 160C0 106.7 0 53.3 0 26.7L0 0Z" fill="#fa9424"></path><path d="M54 0L50 26.7C46 53.3 38 106.7 38 160C38 213.3 46 266.7 50 320C54 373.3 54 426.7 55.5 480C57 533.3 60 586.7 60.8 640C61.7 693.3 60.3 746.7 60.7 800C61 853.3 63 906.7 64 933.3L65 960L0 960L0 933.3C0 906.7 0 853.3 0 800C0 746.7 0 693.3 0 640C0 586.7 0 533.3 0 480C0 426.7 0 373.3 0 320C0 266.7 0 213.3 0 160C0 106.7 0 53.3 0 26.7L0 0Z" fill="#fb9d2c"></path><path d="M16 0L16.7 26.7C17.3 53.3 18.7 106.7 22.5 160C26.3 213.3 32.7 266.7 37 320C41.3 373.3 43.7 426.7 44.3 480C45 533.3 44 586.7 44.7 640C45.3 693.3 47.7 746.7 44.7 800C41.7 853.3 33.3 906.7 29.2 933.3L25 960L0 960L0 933.3C0 906.7 0 853.3 0 800C0 746.7 0 693.3 0 640C0 586.7 0 533.3 0 480C0 426.7 0 373.3 0 320C0 266.7 0 213.3 0 160C0 106.7 0 53.3 0 26.7L0 0Z" fill="#fba634"></path><path d="M32 0L28.5 26.7C25 53.3 18 106.7 16.2 160C14.3 213.3 17.7 266.7 19.5 320C21.3 373.3 21.7 426.7 21.3 480C21 533.3 20 586.7 18.3 640C16.7 693.3 14.3 746.7 12.5 800C10.7 853.3 9.3 906.7 8.7 933.3L8 960L0 960L0 933.3C0 906.7 0 853.3 0 800C0 746.7 0 693.3 0 640C0 586.7 0 533.3 0 480C0 426.7 0 373.3 0 320C0 266.7 0 213.3 0 160C0 106.7 0 53.3 0 26.7L0 0Z" fill="#fcaf3c"></path></svg>